<svg xmlns="http://www.w3.org/2000/svg" width="204" height="204" viewBox="0 0 204 204"><path fill="#EFF0F2" d="M182.27 142.79h-13.76c-2.01 0-4.01 1.15-5.02 2.87l-16.77 28.67c-1 1.72-3.01 2.15-4.73 1.29-.57-.29-1-.86-1.43-1.43l-13.9-28.09c-1-2.01-3.01-3.3-5.16-3.15H21.73c-3.15 0-5.73-2.58-5.73-5.73V30.99c0-3.15 2.58-5.73 5.73-5.73h160.53c3.15 0 5.73 2.58 5.73 5.73v106.07c.01 3.15-2.43 5.73-5.72 5.73z"/><path fill="#FABB05" d="M46.96 48.47l3.3 6.74c.29.57.86 1 1.43 1l7.31 1c1 .14 1.72 1 1.58 2.01 0 .43-.29.72-.43 1l-5.3 5.59c-.43.43-.57 1-.43 1.58l1.43 7.6c.14 1-.43 1.86-1.43 2.15-.43 0-.86 0-1.15-.14l-6.45-3.44c-.57-.29-1.15-.29-1.72 0l-6.45 3.58c-.86.43-2.01.14-2.44-.72-.14-.29-.29-.72-.29-1.15l1.15-7.74c.14-.57-.14-1.15-.57-1.58l-5.45-5.45c-.72-.72-.72-1.86 0-2.58.29-.29.57-.43 1-.57l7.31-1.29c.57-.14 1.15-.43 1.29-1l3.15-6.88c.43-.86 1.58-1.29 2.44-.86.29.58.58.87.72 1.15zm37.41 0l3.3 6.74c.29.57.86 1 1.43 1l7.31 1c1 .14 1.72 1 1.58 2.01 0 .43-.29.72-.43 1l-5.3 5.59c-.43.43-.57 1-.43 1.58l1.43 7.6c.14 1-.43 1.86-1.43 2.15-.43 0-.86 0-1.15-.14l-6.45-3.44c-.57-.29-1.15-.29-1.72 0l-6.31 3.58c-.86.43-2.01.14-2.44-.72-.14-.29-.29-.72-.29-1.15l1.15-7.74c.14-.57-.14-1.15-.57-1.58L68.6 60.5c-.72-.72-.72-1.86 0-2.58.29-.29.57-.43 1-.57l7.31-1.29c.57-.14 1.15-.43 1.29-1l3.15-6.88c.43-.86 1.58-1.29 2.44-.72.15.44.44.73.58 1.01zm37.41 0l3.3 6.74c.29.57.86 1 1.43 1l7.31 1c1 .14 1.72 1 1.58 2.01 0 .43-.14.72-.43 1l-5.3 5.59c-.43.43-.57 1-.43 1.58l1.43 7.74c.29 1-.43 2.01-1.29 2.15-.57.14-1 0-1.43-.29l-6.45-3.44c-.57-.29-1.15-.29-1.72 0l-6.31 3.58c-.86.43-2.01.14-2.44-.86-.43-.14-.43-.43-.43-.86l1.15-7.74c.14-.57-.14-1.15-.57-1.58l-5.45-5.45c-.72-.72-.72-1.86 0-2.58.29-.29.57-.43 1-.57l7.31-1.29c.57-.14 1.15-.43 1.29-1l3.15-6.88c.43-.86 1.58-1.29 2.44-.86.43.44.72.73.86 1.01zm37.41 0l3.3 6.74c.29.57.86 1 1.43 1l7.31 1c1 .14 1.72 1 1.58 2.01 0 .43-.29.72-.43 1l-5.3 5.59c-.43.43-.57 1-.43 1.58l1.43 7.6c.14 1-.43 1.86-1.43 2.15-.43 0-.86 0-1.15-.14l-6.45-3.44c-.57-.29-1.15-.29-1.72 0l-6.59 3.73c-.86.43-2.01.14-2.44-.72-.14-.29-.29-.72-.29-1.15l1.15-7.74c.14-.57-.14-1.15-.57-1.58l-5.45-5.45c-.72-.72-.72-1.86 0-2.58.29-.29.57-.43 1-.57l7.31-1.29c.57-.14 1.15-.43 1.29-1l3.15-6.88c.43-.86 1.58-1.29 2.44-.86.43.43.72.72.86 1z"/><path fill="#CDD0D5" d="M28.76 93.34h144.48v6.59H28.76v-6.59zm0 19.63h95.17v6.59H28.76v-6.59z"/></svg>